<svg xmlns="http://www.w3.org/2000/svg" xmlns:xlink="http://www.w3.org/1999/xlink" width="1920" zoomAndPan="magnify" viewBox="0 0 1440 809.999993" height="1080" preserveAspectRatio="xMidYMid meet" version="1.0"><defs><clipPath id="96b6cb9c8b"><path d="M 367 116.546875 L 1020 116.546875 L 1020 693.296875 L 367 693.296875 Z M 367 116.546875 " clip-rule="nonzero"/></clipPath></defs><g clip-path="url(#96b6cb9c8b)"><path fill="#000000" d="M 613.457031 507.578125 C 619.601562 507.578125 623.671875 511.648438 623.671875 517.789062 C 623.671875 523.933594 619.601562 528 613.457031 528 L 436.777344 528 C 430.632812 528 426.566406 523.933594 426.566406 517.789062 C 426.566406 511.648438 430.632812 507.578125 436.777344 507.578125 Z M 377.585938 421.832031 L 554.269531 421.832031 C 560.414062 421.832031 564.480469 425.898438 564.480469 432.042969 C 564.480469 437.84375 560.851562 441.792969 555.273438 442.214844 L 554.269531 442.253906 L 377.585938 442.253906 C 371.445312 442.253906 367.375 438.183594 367.375 432.042969 C 367.375 426.242188 371.003906 422.289062 376.582031 421.867188 L 377.585938 421.832031 L 554.269531 421.832031 Z M 436.777344 336.082031 L 613.457031 336.082031 C 619.601562 336.082031 623.671875 340.152344 623.671875 346.292969 C 623.671875 352.09375 620.042969 356.046875 614.464844 356.464844 L 613.457031 356.503906 L 436.777344 356.503906 C 430.675781 356.503906 426.566406 352.394531 426.566406 346.292969 C 426.566406 340.492188 430.195312 336.539062 435.773438 336.121094 L 436.777344 336.082031 L 613.457031 336.082031 Z M 992.203125 320.339844 C 1010.015625 355.128906 1019.910156 394.53125 1019.910156 436.109375 C 1019.910156 578.054688 904.5 693.445312 762.53125 693.363281 C 694.121094 693.363281 629.769531 666.839844 580.742188 617.820312 C 576.675781 613.753906 576.675781 607.613281 580.742188 603.542969 C 584.8125 599.476562 590.957031 599.476562 595.023438 603.542969 C 639.9375 648.496094 699.175781 672.984375 762.484375 672.984375 C 893.210938 672.984375 999.398438 566.8125 999.398438 436.109375 C 999.398438 400.453125 991.394531 366.515625 977.054688 336.113281 Z M 960.886719 352.949219 C 971.917969 378.78125 978.023438 407.226562 978.023438 437.101562 C 978.023438 555.5625 882.046875 651.523438 763.566406 651.523438 C 719.691406 651.523438 677.804688 638.242188 642.0625 613.753906 C 636.953125 610.722656 635.917969 604.582031 638.988281 599.476562 C 642.0625 595.40625 648.203125 594.367188 654.308594 597.359375 C 685.9375 619.816406 723.757812 631.0625 763.566406 631.0625 C 870.796875 631.0625 957.601562 544.273438 957.601562 437.0625 C 957.601562 413.144531 953.28125 390.242188 945.378906 369.097656 Z M 958.21875 263.765625 C 967.324219 262.519531 976.203125 267.25 980.214844 275.492188 C 984.257812 283.765625 982.511719 293.667969 975.929688 300.058594 C 900.8125 375.332031 846.523438 436.382812 770.523438 512.511719 C 762.75 520.394531 750.214844 520.976562 741.75 513.839844 L 649.671875 435.941406 C 645.328125 432.316406 642.617188 427.117188 642.144531 421.472656 C 641.648438 415.828125 643.417969 410.242188 647.070312 405.925781 C 650.722656 401.582031 655.953125 398.898438 661.570312 398.429688 C 667.214844 397.957031 672.800781 399.757812 677.117188 403.40625 L 754.144531 468.472656 C 821.816406 399.890625 874.90625 341.246094 945.824219 270.179688 C 949.113281 266.722656 953.484375 264.457031 958.21875 263.765625 Z M 763.566406 222.679688 C 817.671875 222.679688 867.085938 242.691406 904.8125 275.722656 L 890.703125 290.457031 C 856.660156 260.925781 812.214844 243.058594 763.566406 243.058594 C 722.714844 243.058594 682.863281 255.34375 650.191406 279.835938 C 645.085938 282.90625 638.984375 281.867188 635.910156 277.800781 C 632.839844 273.730469 633.875 266.59375 637.945312 263.523438 C 674.726562 236.957031 718.648438 222.679688 763.566406 222.679688 Z M 809.527344 116.546875 C 815.667969 116.546875 819.738281 120.613281 819.738281 126.757812 C 819.738281 132.558594 816.109375 136.507812 810.53125 136.929688 L 809.527344 136.96875 L 772.746094 136.96875 L 772.746094 179.84375 C 832.773438 181.835938 886.9375 204.421875 929.433594 240.847656 L 932.078125 243.140625 L 934.082031 245.148438 L 919.835938 260.035156 C 877.558594 222.867188 822.402344 200.222656 762.484375 200.222656 C 697.148438 200.222656 635.875 226.789062 589.921875 274.769531 C 585.851562 278.839844 579.707031 278.839844 575.640625 274.769531 C 571.570312 270.703125 571.570312 264.558594 575.640625 260.492188 C 621.78125 211.386719 682.644531 183.925781 748.648438 180.035156 L 752.320312 179.84375 L 752.320312 136.96875 L 716.578125 136.96875 C 710.433594 136.96875 706.367188 132.898438 706.367188 126.757812 C 706.367188 120.957031 709.996094 117.003906 715.574219 116.582031 L 716.578125 116.546875 Z M 809.527344 116.546875 " fill-opacity="1" fill-rule="evenodd"/></g></svg>