<svg xmlns="http://www.w3.org/2000/svg" xmlns:xlink="http://www.w3.org/1999/xlink" width="1920" zoomAndPan="magnify" viewBox="0 0 1440 809.999993" height="1080" preserveAspectRatio="xMidYMid meet" version="1.0"><defs><clipPath id="322d6ba01d"><path d="M 367 116.546875 L 1020 116.546875 L 1020 693.296875 L 367 693.296875 Z M 367 116.546875 " clip-rule="nonzero"/></clipPath></defs><g clip-path="url(#322d6ba01d)"><path fill="#ffffff" d="M 613.484375 507.683594 C 619.628906 507.683594 623.699219 511.753906 623.699219 517.894531 C 623.699219 524.039062 619.628906 528.109375 613.484375 528.109375 L 436.785156 528.109375 C 430.640625 528.109375 426.570312 524.039062 426.570312 517.894531 C 426.570312 511.753906 430.640625 507.683594 436.785156 507.683594 Z M 377.589844 421.910156 L 554.289062 421.910156 C 560.433594 421.910156 564.503906 425.980469 564.503906 432.125 C 564.503906 437.925781 560.871094 441.878906 555.292969 442.300781 L 554.289062 442.339844 L 377.589844 442.339844 C 371.445312 442.339844 367.375 438.269531 367.375 432.125 C 367.375 426.324219 371.003906 422.371094 376.585938 421.949219 L 377.589844 421.910156 L 554.289062 421.910156 Z M 436.785156 336.140625 L 613.484375 336.140625 C 619.628906 336.140625 623.699219 340.210938 623.699219 346.355469 C 623.699219 352.15625 620.070312 356.109375 614.488281 356.53125 L 613.484375 356.566406 L 436.785156 356.566406 C 430.679688 356.566406 426.570312 352.457031 426.570312 346.355469 C 426.570312 340.550781 430.203125 336.597656 435.78125 336.175781 L 436.785156 336.140625 L 613.484375 336.140625 Z M 992.269531 320.394531 C 1010.085938 355.195312 1019.980469 394.605469 1019.980469 436.191406 C 1019.980469 578.175781 904.558594 693.597656 762.574219 693.515625 C 694.15625 693.515625 629.796875 666.988281 580.765625 617.953125 C 576.695312 613.886719 576.695312 607.742188 580.765625 603.671875 C 584.835938 599.601562 590.980469 599.601562 595.046875 603.671875 C 639.96875 648.636719 699.210938 673.132812 762.527344 673.132812 C 893.265625 673.132812 999.464844 566.933594 999.464844 436.191406 C 999.464844 400.527344 991.460938 366.582031 977.121094 336.171875 Z M 960.953125 353.011719 C 971.984375 378.851562 978.089844 407.304688 978.089844 437.1875 C 978.089844 555.675781 882.101562 651.667969 763.609375 651.667969 C 719.726562 651.667969 677.835938 638.378906 642.089844 613.886719 C 636.984375 610.855469 635.945312 604.710938 639.019531 599.601562 C 642.089844 595.53125 648.234375 594.496094 654.339844 597.488281 C 685.972656 619.949219 723.796875 631.199219 763.609375 631.199219 C 870.851562 631.199219 957.664062 544.386719 957.664062 437.144531 C 957.664062 413.222656 953.34375 390.316406 945.441406 369.164062 Z M 958.285156 263.804688 C 967.386719 262.558594 976.269531 267.289062 980.28125 275.535156 C 984.324219 283.808594 982.578125 293.714844 975.992188 300.105469 C 900.871094 375.398438 846.574219 436.46875 770.566406 512.617188 C 762.792969 520.503906 750.257812 521.082031 741.789062 513.945312 L 649.703125 436.023438 C 645.359375 432.398438 642.644531 427.199219 642.175781 421.550781 C 641.675781 415.90625 643.449219 410.320312 647.101562 406 C 650.753906 401.65625 655.984375 398.972656 661.601562 398.503906 C 667.246094 398.03125 672.835938 399.832031 677.152344 403.484375 L 754.1875 468.566406 C 821.863281 399.964844 874.960938 341.308594 945.882812 270.222656 C 949.175781 266.761719 953.550781 264.496094 958.28125 263.800781 Z M 763.609375 222.707031 C 817.722656 222.707031 867.140625 242.726562 904.867188 275.765625 L 890.757812 290.5 C 856.714844 260.960938 812.265625 243.09375 763.609375 243.09375 C 722.753906 243.09375 682.898438 255.382812 650.222656 279.878906 C 645.117188 282.949219 639.011719 281.910156 635.941406 277.84375 C 632.867188 273.773438 633.90625 266.632812 637.976562 263.558594 C 674.761719 236.988281 718.6875 222.707031 763.609375 222.707031 Z M 809.574219 116.546875 C 815.71875 116.546875 819.785156 120.617188 819.785156 126.757812 C 819.785156 132.5625 816.15625 136.515625 810.578125 136.9375 L 809.574219 136.972656 L 772.789062 136.972656 L 772.789062 179.859375 C 832.824219 181.855469 886.996094 204.445312 929.496094 240.878906 L 932.136719 243.175781 L 934.144531 245.179688 L 919.894531 260.074219 C 877.613281 222.894531 822.453125 200.246094 762.527344 200.246094 C 697.183594 200.246094 635.902344 226.816406 589.945312 274.8125 C 585.875 278.882812 579.730469 278.882812 575.660156 274.8125 C 571.59375 270.742188 571.59375 264.597656 575.660156 260.53125 C 621.808594 211.410156 682.679688 183.941406 748.691406 180.050781 L 752.363281 179.859375 L 752.363281 136.972656 L 716.617188 136.972656 C 710.472656 136.972656 706.402344 132.902344 706.402344 126.757812 C 706.402344 120.957031 710.03125 117.003906 715.613281 116.582031 L 716.617188 116.546875 Z M 809.574219 116.546875 " fill-opacity="1" fill-rule="evenodd"/></g></svg>