<svg xmlns="http://www.w3.org/2000/svg" xmlns:xlink="http://www.w3.org/1999/xlink" width="1920" zoomAndPan="magnify" viewBox="0 0 1440 1439.999935" height="1920" preserveAspectRatio="xMidYMid meet" version="1.0"><defs><clipPath id="25e4a39b97"><path d="M 250.363281 211.152344 L 1189.355469 211.152344 L 1189.355469 451 L 250.363281 451 Z M 250.363281 211.152344 " clip-rule="nonzero"/></clipPath><clipPath id="67068aae43"><path d="M 317.863281 211.152344 L 1122.128906 211.152344 C 1159.410156 211.152344 1189.628906 241.371094 1189.628906 278.652344 L 1189.628906 383.46875 C 1189.628906 420.746094 1159.410156 450.964844 1122.128906 450.964844 L 317.863281 450.964844 C 280.585938 450.964844 250.363281 420.746094 250.363281 383.46875 L 250.363281 278.652344 C 250.363281 241.371094 280.585938 211.152344 317.863281 211.152344 Z M 317.863281 211.152344 " clip-rule="nonzero"/></clipPath><clipPath id="2bb8470348"><path d="M 250.363281 600.089844 L 1189.355469 600.089844 L 1189.355469 840 L 250.363281 840 Z M 250.363281 600.089844 " clip-rule="nonzero"/></clipPath><clipPath id="fb529c42fd"><path d="M 317.863281 600.089844 L 1122.128906 600.089844 C 1159.410156 600.089844 1189.628906 630.3125 1189.628906 667.589844 L 1189.628906 772.40625 C 1189.628906 809.683594 1159.410156 839.902344 1122.128906 839.902344 L 317.863281 839.902344 C 280.585938 839.902344 250.363281 809.683594 250.363281 772.40625 L 250.363281 667.589844 C 250.363281 630.3125 280.585938 600.089844 317.863281 600.089844 Z M 317.863281 600.089844 " clip-rule="nonzero"/></clipPath><clipPath id="f82f8882d5"><path d="M 250.363281 989.027344 L 1189.355469 989.027344 L 1189.355469 1229 L 250.363281 1229 Z M 250.363281 989.027344 " clip-rule="nonzero"/></clipPath><clipPath id="0abd2e095c"><path d="M 317.863281 989.027344 L 1122.128906 989.027344 C 1159.410156 989.027344 1189.628906 1019.25 1189.628906 1056.527344 L 1189.628906 1161.34375 C 1189.628906 1198.621094 1159.410156 1228.839844 1122.128906 1228.839844 L 317.863281 1228.839844 C 280.585938 1228.839844 250.363281 1198.621094 250.363281 1161.34375 L 250.363281 1056.527344 C 250.363281 1019.25 280.585938 989.027344 317.863281 989.027344 Z M 317.863281 989.027344 " clip-rule="nonzero"/></clipPath></defs><g clip-path="url(#25e4a39b97)"><g clip-path="url(#67068aae43)"><path stroke-linecap="butt" transform="matrix(0.75, 0, 0, 0.75, 250.364336, 211.152866)" fill="none" stroke-linejoin="miter" d="M 89.998601 -0.000696961 L 1162.352861 -0.000696961 C 1212.061198 -0.000696961 1252.352869 40.290973 1252.352869 89.999311 L 1252.352869 229.754531 C 1252.352869 279.457661 1212.061198 319.749331 1162.352861 319.749331 L 89.998601 319.749331 C 40.295472 319.749331 -0.00140682 279.457661 -0.00140682 229.754531 L -0.00140682 89.999311 C -0.00140682 40.290973 40.295472 -0.000696961 89.998601 -0.000696961 Z M 89.998601 -0.000696961 " stroke="#000000" stroke-width="48" stroke-opacity="1" stroke-miterlimit="4"/></g></g><path stroke-linecap="butt" transform="matrix(0.53033, 0.53033, -0.53033, 0.53033, 1051.641157, 323.341915)" fill="none" stroke-linejoin="miter" d="M 0.00122816 12.000951 L 63.648209 12.000951 " stroke="#000000" stroke-width="24" stroke-opacity="1" stroke-miterlimit="4"/><path stroke-linecap="butt" transform="matrix(-0.53033, 0.53033, -0.53033, -0.53033, 1106.769536, 336.069824)" fill="none" stroke-linejoin="miter" d="M 0.00046504 11.998264 L 63.651129 12.001947 " stroke="#000000" stroke-width="24" stroke-opacity="1" stroke-miterlimit="4"/><g clip-path="url(#2bb8470348)"><g clip-path="url(#fb529c42fd)"><path stroke-linecap="butt" transform="matrix(0.75, 0, 0, 0.75, 250.364336, 600.090744)" fill="none" stroke-linejoin="miter" d="M 89.998601 -0.00120021 L 1162.352861 -0.00120021 C 1212.061198 -0.00120021 1252.352869 40.295678 1252.352869 89.998808 L 1252.352869 229.754028 C 1252.352869 279.457157 1212.061198 319.748828 1162.352861 319.748828 L 89.998601 319.748828 C 40.295472 319.748828 -0.00140682 279.457157 -0.00140682 229.754028 L -0.00140682 89.998808 C -0.00140682 40.295678 40.295472 -0.00120021 89.998601 -0.00120021 Z M 89.998601 -0.00120021 " stroke="#000000" stroke-width="48" stroke-opacity="1" stroke-miterlimit="4"/></g></g><path stroke-linecap="butt" transform="matrix(0.53033, 0.53033, -0.53033, 0.53033, 1051.641157, 712.279838)" fill="none" stroke-linejoin="miter" d="M 0.000829312 12.000552 L 63.647811 12.000552 " stroke="#000000" stroke-width="24" stroke-opacity="1" stroke-miterlimit="4"/><path stroke-linecap="butt" transform="matrix(-0.53033, 0.53033, -0.53033, -0.53033, 1106.769536, 725.007685)" fill="none" stroke-linejoin="miter" d="M 0.000125027 11.998604 L 63.650789 12.002287 " stroke="#000000" stroke-width="24" stroke-opacity="1" stroke-miterlimit="4"/><g clip-path="url(#f82f8882d5)"><g clip-path="url(#0abd2e095c)"><path stroke-linecap="butt" transform="matrix(0.75, 0, 0, 0.75, 250.364336, 989.028638)" fill="none" stroke-linejoin="miter" d="M 89.998601 -0.00172586 L 1162.352861 -0.00172586 C 1212.061198 -0.00172586 1252.352869 40.295153 1252.352869 89.998282 L 1252.352869 229.753502 C 1252.352869 279.456632 1212.061198 319.748302 1162.352861 319.748302 L 89.998601 319.748302 C 40.295472 319.748302 -0.00140682 279.456632 -0.00140682 229.753502 L -0.00140682 89.998282 C -0.00140682 40.295153 40.295472 -0.00172586 89.998601 -0.00172586 Z M 89.998601 -0.00172586 " stroke="#000000" stroke-width="48" stroke-opacity="1" stroke-miterlimit="4"/></g></g><path stroke-linecap="butt" transform="matrix(0.53033, 0.53033, -0.53033, 0.53033, 1051.641157, 1101.217612)" fill="none" stroke-linejoin="miter" d="M 0.000570758 12.000293 L 63.647552 12.000293 " stroke="#000000" stroke-width="24" stroke-opacity="1" stroke-miterlimit="4"/><path stroke-linecap="butt" transform="matrix(-0.53033, 0.53033, -0.53033, -0.53033, 1106.769536, 1113.945579)" fill="none" stroke-linejoin="miter" d="M -0.000246664 11.998976 L 63.650417 12.002658 " stroke="#000000" stroke-width="24" stroke-opacity="1" stroke-miterlimit="4"/></svg>