<svg xmlns="http://www.w3.org/2000/svg" xmlns:xlink="http://www.w3.org/1999/xlink" width="1920" zoomAndPan="magnify" viewBox="0 0 1440 809.999993" height="1080" preserveAspectRatio="xMidYMid meet" version="1.0"><defs><clipPath id="9069c1274a"><path d="M 136.390625 209.003906 L 449.890625 209.003906 L 449.890625 601 L 136.390625 601 Z M 136.390625 209.003906 " clip-rule="nonzero"/></clipPath></defs><g clip-path="url(#9069c1274a)"><path fill="#ffffff" d="M 353.253906 209.359375 L 188.980469 209.359375 C 159.949219 209.359375 136.328125 232.980469 136.328125 262.011719 L 136.328125 547.984375 C 136.328125 577.019531 159.949219 600.640625 188.980469 600.640625 L 397.40625 600.640625 C 426.433594 600.640625 450.054688 577.023438 450.054688 547.984375 L 450.054688 317.554688 Z M 360.925781 259.558594 L 405.148438 308.984375 L 360.925781 308.984375 Z M 397.402344 572.886719 L 188.980469 572.886719 C 175.25 572.886719 164.078125 561.71875 164.078125 547.984375 L 164.078125 262.011719 C 164.078125 248.28125 175.25 237.109375 188.980469 237.109375 L 333.175781 237.109375 L 333.175781 336.730469 L 422.304688 336.730469 L 422.304688 547.984375 C 422.296875 561.71875 411.128906 572.886719 397.402344 572.886719 Z M 397.402344 572.886719 " fill-opacity="1" fill-rule="nonzero"/></g><path fill="#ffffff" d="M 193.867188 489.878906 L 392.507812 489.878906 L 392.507812 517.628906 L 193.867188 517.628906 Z M 193.867188 489.878906 " fill-opacity="1" fill-rule="nonzero"/><path fill="#ffffff" d="M 193.867188 429.574219 L 392.507812 429.574219 L 392.507812 457.324219 L 193.867188 457.324219 Z M 193.867188 429.574219 " fill-opacity="1" fill-rule="nonzero"/><path fill="#ffffff" d="M 193.867188 369.277344 L 392.507812 369.277344 L 392.507812 397.03125 L 193.867188 397.03125 Z M 193.867188 369.277344 " fill-opacity="1" fill-rule="nonzero"/><path stroke-linecap="butt" transform="matrix(0.75, 0, 0, 0.75, 522.487492, 390)" fill="none" stroke-linejoin="miter" d="M 0.00105242 20.000001 L 182.88127 20.000001 " stroke="#ffffff" stroke-width="40" stroke-opacity="1" stroke-miterlimit="4"/><path stroke-linecap="round" transform="matrix(0.75, 0, 0, 0.75, 522.487492, 390)" fill-opacity="1" fill="#ffffff" fill-rule="nonzero" stroke-linejoin="round" d="M 192.88127 -40.000003 L 272.881274 20.000001 L 192.88127 80.000004 Z M 192.88127 -40.000003 " stroke="#ffffff" stroke-width="40" stroke-opacity="1" stroke-miterlimit="4"/><path fill="#ffffff" d="M 1058.316406 267.957031 C 965.058594 267.957031 879.226562 310.472656 822.839844 384.585938 C 814.046875 396.128906 814.046875 412.25 822.832031 423.78125 C 879.226562 497.910156 965.058594 540.425781 1058.316406 540.425781 C 1151.578125 540.425781 1237.410156 497.910156 1293.796875 423.796875 C 1302.589844 412.25 1302.589844 396.144531 1293.804688 384.601562 C 1237.410156 310.472656 1151.578125 267.957031 1058.316406 267.957031 Z M 1268.117188 404.238281 C 1217.875 470.277344 1141.40625 508.152344 1058.316406 508.152344 C 975.230469 508.152344 898.757812 470.277344 848.519531 404.144531 C 898.757812 338.105469 975.230469 300.230469 1058.316406 300.230469 C 1141.40625 300.230469 1217.875 338.105469 1268.117188 404.144531 C 1268.117188 404.152344 1268.117188 404.230469 1268.117188 404.238281 Z M 1268.117188 404.238281 " fill-opacity="1" fill-rule="nonzero"/><path fill="#ffffff" d="M 1058.316406 309.726562 C 1006.226562 309.726562 963.851562 352.101562 963.851562 404.191406 C 963.851562 456.28125 1006.226562 498.65625 1058.316406 498.65625 C 1110.410156 498.65625 1152.785156 456.28125 1152.785156 404.191406 C 1152.785156 352.101562 1110.410156 309.726562 1058.316406 309.726562 Z M 1058.316406 466.382812 C 1024.027344 466.382812 996.125 438.484375 996.125 404.191406 C 996.125 369.898438 1024.027344 342 1058.316406 342 C 1092.609375 342 1120.511719 369.898438 1120.511719 404.191406 C 1120.511719 438.484375 1092.609375 466.382812 1058.316406 466.382812 Z M 1058.316406 466.382812 " fill-opacity="1" fill-rule="nonzero"/></svg>