<svg xmlns="http://www.w3.org/2000/svg" xmlns:xlink="http://www.w3.org/1999/xlink" width="1920" zoomAndPan="magnify" viewBox="0 0 1440 1439.999935" height="1920" preserveAspectRatio="xMidYMid meet" version="1.0"><defs><clipPath id="d9814a6ee9"><path d="M 250.363281 211.152344 L 1189.355469 211.152344 L 1189.355469 451 L 250.363281 451 Z M 250.363281 211.152344 " clip-rule="nonzero"/></clipPath><clipPath id="450c4cbfde"><path d="M 317.863281 211.152344 L 1122.128906 211.152344 C 1159.410156 211.152344 1189.628906 241.371094 1189.628906 278.652344 L 1189.628906 383.46875 C 1189.628906 420.746094 1159.410156 450.964844 1122.128906 450.964844 L 317.863281 450.964844 C 280.585938 450.964844 250.363281 420.746094 250.363281 383.46875 L 250.363281 278.652344 C 250.363281 241.371094 280.585938 211.152344 317.863281 211.152344 Z M 317.863281 211.152344 " clip-rule="nonzero"/></clipPath><clipPath id="306fd85fed"><path d="M 250.363281 600.089844 L 1189.355469 600.089844 L 1189.355469 840 L 250.363281 840 Z M 250.363281 600.089844 " clip-rule="nonzero"/></clipPath><clipPath id="1b75e6a2d7"><path d="M 317.863281 600.089844 L 1122.128906 600.089844 C 1159.410156 600.089844 1189.628906 630.3125 1189.628906 667.589844 L 1189.628906 772.40625 C 1189.628906 809.683594 1159.410156 839.902344 1122.128906 839.902344 L 317.863281 839.902344 C 280.585938 839.902344 250.363281 809.683594 250.363281 772.40625 L 250.363281 667.589844 C 250.363281 630.3125 280.585938 600.089844 317.863281 600.089844 Z M 317.863281 600.089844 " clip-rule="nonzero"/></clipPath><clipPath id="988f67bd0a"><path d="M 250.363281 989.027344 L 1189.355469 989.027344 L 1189.355469 1229 L 250.363281 1229 Z M 250.363281 989.027344 " clip-rule="nonzero"/></clipPath><clipPath id="a3af8d2cef"><path d="M 317.863281 989.027344 L 1122.128906 989.027344 C 1159.410156 989.027344 1189.628906 1019.25 1189.628906 1056.527344 L 1189.628906 1161.34375 C 1189.628906 1198.621094 1159.410156 1228.839844 1122.128906 1228.839844 L 317.863281 1228.839844 C 280.585938 1228.839844 250.363281 1198.621094 250.363281 1161.34375 L 250.363281 1056.527344 C 250.363281 1019.25 280.585938 989.027344 317.863281 989.027344 Z M 317.863281 989.027344 " clip-rule="nonzero"/></clipPath></defs><g clip-path="url(#d9814a6ee9)"><g clip-path="url(#450c4cbfde)"><path stroke-linecap="butt" transform="matrix(0.75, 0, 0, 0.75, 250.364336, 211.152852)" fill="none" stroke-linejoin="miter" d="M 89.998601 -0.000677761 L 1162.352861 -0.000677761 C 1212.061198 -0.000677761 1252.352869 40.290992 1252.352869 89.99933 L 1252.352869 229.754551 C 1252.352869 279.45768 1212.061198 319.74935 1162.352861 319.74935 L 89.998601 319.74935 C 40.295472 319.74935 -0.00140682 279.45768 -0.00140682 229.754551 L -0.00140682 89.99933 C -0.00140682 40.290992 40.295472 -0.000677761 89.998601 -0.000677761 Z M 89.998601 -0.000677761 " stroke="#ffffff" stroke-width="48" stroke-opacity="1" stroke-miterlimit="4"/></g></g><path stroke-linecap="butt" transform="matrix(0.53033, 0.53033, -0.53033, 0.53033, 1051.641157, 323.341826)" fill="none" stroke-linejoin="miter" d="M 0.00131188 12.001035 L 63.648293 12.001035 " stroke="#ffffff" stroke-width="24" stroke-opacity="1" stroke-miterlimit="4"/><path stroke-linecap="butt" transform="matrix(-0.53033, 0.53033, -0.53033, -0.53033, 1106.769536, 336.069911)" fill="none" stroke-linejoin="miter" d="M 0.000383581 11.998345 L 63.651048 12.002028 " stroke="#ffffff" stroke-width="24" stroke-opacity="1" stroke-miterlimit="4"/><g clip-path="url(#306fd85fed)"><g clip-path="url(#1b75e6a2d7)"><path stroke-linecap="butt" transform="matrix(0.75, 0, 0, 0.75, 250.364336, 600.090864)" fill="none" stroke-linejoin="miter" d="M 89.998601 -0.00136021 L 1162.352861 -0.00136021 C 1212.061198 -0.00136021 1252.352869 40.295518 1252.352869 89.998648 L 1252.352869 229.753868 C 1252.352869 279.456997 1212.061198 319.748668 1162.352861 319.748668 L 89.998601 319.748668 C 40.295472 319.748668 -0.00140682 279.456997 -0.00140682 229.753868 L -0.00140682 89.998648 C -0.00140682 40.295518 40.295472 -0.00136021 89.998601 -0.00136021 Z M 89.998601 -0.00136021 " stroke="#ffffff" stroke-width="48" stroke-opacity="1" stroke-miterlimit="4"/></g></g><path stroke-linecap="butt" transform="matrix(0.53033, 0.53033, -0.53033, 0.53033, 1051.641157, 712.279838)" fill="none" stroke-linejoin="miter" d="M 0.000829312 12.000552 L 63.647811 12.000552 " stroke="#ffffff" stroke-width="24" stroke-opacity="1" stroke-miterlimit="4"/><path stroke-linecap="butt" transform="matrix(-0.53033, 0.53033, -0.53033, -0.53033, 1106.769536, 725.007565)" fill="none" stroke-linejoin="miter" d="M 0.000238164 11.998491 L 63.650902 12.002174 " stroke="#ffffff" stroke-width="24" stroke-opacity="1" stroke-miterlimit="4"/><g clip-path="url(#988f67bd0a)"><g clip-path="url(#a3af8d2cef)"><path stroke-linecap="butt" transform="matrix(0.75, 0, 0, 0.75, 250.364336, 989.028638)" fill="none" stroke-linejoin="miter" d="M 89.998601 -0.00172586 L 1162.352861 -0.00172586 C 1212.061198 -0.00172586 1252.352869 40.295153 1252.352869 89.998282 L 1252.352869 229.753502 C 1252.352869 279.456632 1212.061198 319.748302 1162.352861 319.748302 L 89.998601 319.748302 C 40.295472 319.748302 -0.00140682 279.456632 -0.00140682 229.753502 L -0.00140682 89.998282 C -0.00140682 40.295153 40.295472 -0.00172586 89.998601 -0.00172586 Z M 89.998601 -0.00172586 " stroke="#ffffff" stroke-width="48" stroke-opacity="1" stroke-miterlimit="4"/></g></g><path stroke-linecap="butt" transform="matrix(0.53033, 0.53033, -0.53033, 0.53033, 1051.641157, 1101.217612)" fill="none" stroke-linejoin="miter" d="M 0.000570758 12.000293 L 63.647552 12.000293 " stroke="#ffffff" stroke-width="24" stroke-opacity="1" stroke-miterlimit="4"/><path stroke-linecap="butt" transform="matrix(-0.53033, 0.53033, -0.53033, -0.53033, 1106.769536, 1113.945579)" fill="none" stroke-linejoin="miter" d="M -0.000246664 11.998976 L 63.650417 12.002658 " stroke="#ffffff" stroke-width="24" stroke-opacity="1" stroke-miterlimit="4"/></svg>