<svg xmlns="http://www.w3.org/2000/svg" xmlns:xlink="http://www.w3.org/1999/xlink" width="1920" zoomAndPan="magnify" viewBox="0 0 1440 809.999993" height="1080" preserveAspectRatio="xMidYMid meet" version="1.0"><defs><clipPath id="d02db7523f"><path d="M 136.390625 209.003906 L 449.890625 209.003906 L 449.890625 601 L 136.390625 601 Z M 136.390625 209.003906 " clip-rule="nonzero"/></clipPath></defs><g clip-path="url(#d02db7523f)"><path fill="#000000" d="M 353.1875 209.359375 L 188.964844 209.359375 C 159.941406 209.359375 136.328125 232.996094 136.328125 262.046875 L 136.328125 548.207031 C 136.328125 577.261719 159.941406 600.898438 188.964844 600.898438 L 397.328125 600.898438 C 426.347656 600.898438 449.960938 577.265625 449.960938 548.207031 L 449.960938 317.625 Z M 360.859375 259.589844 L 405.066406 309.046875 L 360.859375 309.046875 Z M 397.324219 573.125 L 188.964844 573.125 C 175.238281 573.125 164.070312 561.949219 164.070312 548.207031 L 164.070312 262.046875 C 164.070312 248.308594 175.238281 237.128906 188.964844 237.128906 L 333.117188 237.128906 L 333.117188 336.8125 L 422.21875 336.8125 L 422.21875 548.207031 C 422.214844 561.949219 411.046875 573.125 397.324219 573.125 Z M 397.324219 573.125 " fill-opacity="1" fill-rule="nonzero"/></g><path fill="#000000" d="M 193.847656 490.0625 L 392.429688 490.0625 L 392.429688 517.832031 L 193.847656 517.832031 Z M 193.847656 490.0625 " fill-opacity="1" fill-rule="nonzero"/><path fill="#000000" d="M 193.847656 429.71875 L 392.429688 429.71875 L 392.429688 457.488281 L 193.847656 457.488281 Z M 193.847656 429.71875 " fill-opacity="1" fill-rule="nonzero"/><path fill="#000000" d="M 193.847656 369.382812 L 392.429688 369.382812 L 392.429688 397.152344 L 193.847656 397.152344 Z M 193.847656 369.382812 " fill-opacity="1" fill-rule="nonzero"/><path stroke-linecap="butt" transform="matrix(0.75, 0, 0, 0.75, 522.487492, 390)" fill="none" stroke-linejoin="miter" d="M 0.00105242 20.000001 L 182.88127 20.000001 " stroke="#000000" stroke-width="40" stroke-opacity="1" stroke-miterlimit="4"/><path stroke-linecap="round" transform="matrix(0.75, 0, 0, 0.75, 522.487492, 390)" fill-opacity="1" fill="#000000" fill-rule="nonzero" stroke-linejoin="round" d="M 192.88127 -40.000003 L 272.881274 20.000001 L 192.88127 80.000004 Z M 192.88127 -40.000003 " stroke="#000000" stroke-width="40" stroke-opacity="1" stroke-miterlimit="4"/><path fill="#000000" d="M 1058.339844 267.957031 C 965.070312 267.957031 879.234375 310.515625 822.84375 384.703125 C 814.046875 396.257812 814.046875 412.394531 822.835938 423.933594 C 879.234375 498.132812 965.070312 540.691406 1058.339844 540.691406 C 1151.613281 540.691406 1237.449219 498.132812 1293.839844 423.949219 C 1302.636719 412.394531 1302.636719 396.273438 1293.847656 384.71875 C 1237.449219 310.515625 1151.613281 267.957031 1058.339844 267.957031 Z M 1268.160156 404.371094 C 1217.914062 470.472656 1141.4375 508.386719 1058.339844 508.386719 C 975.246094 508.386719 898.769531 470.472656 848.523438 404.277344 C 898.769531 338.175781 975.246094 300.261719 1058.339844 300.261719 C 1141.4375 300.261719 1217.914062 338.175781 1268.160156 404.277344 C 1268.160156 404.285156 1268.160156 404.363281 1268.160156 404.371094 Z M 1268.160156 404.371094 " fill-opacity="1" fill-rule="nonzero"/><path fill="#000000" d="M 1058.339844 309.765625 C 1006.246094 309.765625 963.867188 352.183594 963.867188 404.324219 C 963.867188 456.464844 1006.246094 498.882812 1058.339844 498.882812 C 1110.4375 498.882812 1152.816406 456.464844 1152.816406 404.324219 C 1152.816406 352.183594 1110.4375 309.765625 1058.339844 309.765625 Z M 1058.339844 466.578125 C 1024.046875 466.578125 996.144531 438.648438 996.144531 404.324219 C 996.144531 370 1024.046875 342.070312 1058.339844 342.070312 C 1092.636719 342.070312 1120.539062 370 1120.539062 404.324219 C 1120.539062 438.648438 1092.636719 466.578125 1058.339844 466.578125 Z M 1058.339844 466.578125 " fill-opacity="1" fill-rule="nonzero"/></svg>